<svg xmlns="http://www.w3.org/2000/svg" width="1920" height="407"><g data-name="Group 1" transform="translate(1 -1080)"><path data-name="Rectangle 2" d="M-1 1080h1920v200H-1z"/><rect data-name="Rectangle 3" width="30" height="121" rx="15" transform="translate(52 1264)"/><rect data-name="Rectangle 4" width="30" height="210" rx="15" transform="translate(114 1264)"/><rect data-name="Rectangle 5" width="29" height="197" rx="14.5" transform="translate(584 1247)"/><rect data-name="Rectangle 6" width="30" height="177" rx="15" transform="translate(423 1251)"/><rect data-name="Rectangle 7" width="30" height="88" rx="15" transform="translate(485 1264)"/><rect data-name="Rectangle 8" width="29" height="200" rx="14.5" transform="translate(1116 1264)"/><rect data-name="Rectangle 9" width="30" height="157" rx="15" transform="translate(981 1264)"/><rect data-name="Rectangle 10" width="30" height="223" rx="15" transform="translate(902 1264)"/><rect data-name="Rectangle 11" width="29" height="105" rx="14.5" transform="translate(824 1264)"/><rect data-name="Rectangle 12" width="29" height="121" rx="14.5" transform="translate(282 1267)"/><rect data-name="Rectangle 28" width="30" height="121" rx="15" transform="translate(1214 1264)"/><rect data-name="Rectangle 29" width="30" height="210" rx="15" transform="translate(1276 1264)"/><rect data-name="Rectangle 30" width="29" height="197" rx="14.5" transform="translate(1746 1247)"/><rect data-name="Rectangle 31" width="30" height="177" rx="15" transform="translate(1585 1251)"/><rect data-name="Rectangle 32" width="30" height="88" rx="15" transform="translate(1647 1264)"/><rect data-name="Rectangle 37" width="29" height="121" rx="14.5" transform="translate(1444 1267)"/><rect data-name="Rectangle 34" width="30" height="157" rx="15" transform="translate(699 1264)"/><rect data-name="Rectangle 36" width="29" height="105" rx="14.5" transform="translate(1838 1264)"/></g></svg>