<?xml version="1.0" standalone="no"?>
<!DOCTYPE svg PUBLIC "-//W3C//DTD SVG 20010904//EN"
 "http://www.w3.org/TR/2001/REC-SVG-20010904/DTD/svg10.dtd">
<svg version="1.0" xmlns="http://www.w3.org/2000/svg"
 width="1564.000000pt" height="1564.000000pt" viewBox="0 0 1564.000000 1564.000000"
 preserveAspectRatio="xMidYMid meet">
<metadata>
Created by potrace 1.11, written by Peter Selinger 2001-2013
</metadata>
<g transform="translate(0.000000,1564.000000) scale(0.100000,-0.100000)"
fill="#000000" stroke="none">
<path d="M9800 12043 c-300 -31 -527 -95 -762 -215 -214 -108 -372 -238 -620
-508 -440 -478 -635 -638 -999 -819 -371 -185 -789 -299 -1324 -360 -370 -43
-800 -60 -1495 -61 -489 0 -757 -10 -1030 -35 -1385 -132 -2289 -610 -2685
-1420 -156 -318 -221 -624 -232 -1085 -6 -283 0 -403 52 -1000 49 -559 61
-831 47 -1072 -26 -426 -84 -670 -253 -1055 -226 -516 -273 -642 -308 -826
-23 -120 -28 -286 -10 -383 78 -444 495 -801 1065 -914 139 -28 424 -38 574
-21 383 45 741 156 1124 351 246 125 487 279 1026 655 847 591 1246 797 1800
929 441 106 969 115 1424 25 343 -68 614 -165 1083 -390 544 -261 829 -374
1093 -433 861 -192 1516 263 1860 1292 69 209 109 367 195 777 98 466 144 650
216 867 220 665 526 1018 1133 1308 206 99 390 166 936 340 711 228 1057 405
1335 685 213 214 340 454 402 760 28 139 25 482 -6 624 -73 342 -208 600 -430
822 -128 128 -219 193 -386 275 -287 141 -582 202 -1230 254 -719 58 -926 99
-1807 359 -571 168 -884 237 -1227 271 -95 9 -481 12 -561 3z"/>
</g>
</svg>
