<svg xmlns="http://www.w3.org/2000/svg" viewBox="0 0 1564.08 1400"><defs><style>.cls-1{fill:#ed7102;}</style></defs><g id="Layer_1" data-name="Layer 1"><path class="cls-1" d="M1476.5,374.29c-57.18-35-129.17-29.16-195.55-38.68-67.89-9.73-132.2-36.42-199.36-50.37s-142.3-13.37-198.12,26.48c-31.56,22.53-54,55.51-82.8,81.46-96.84,87.22-242.46,80.5-372.79,81.29S144.52,503.6,87.93,621c-57,118.25,16.44,264.23-25.25,388.7-18.25,54.48-58.44,108.56-41.52,163.46,7.9,25.65,27.78,46.35,50.87,60,73.18,43.3,168.36,18.68,241.86-24.07s137.64-102.37,216.75-133.55c76.35-30.11,163.82-31,240.76-2.42,81.84,30.39,164.27,93.58,246.81,65.15,69.3-23.87,102-102.41,117.73-174s25.47-150,76.18-203c80-83.42,229.78-69.21,303-158.58C1570.57,535.11,1551.12,420,1476.5,374.29Z"/></g></svg>